<?xml version="1.0" encoding="UTF-8" standalone="no"?>
<svg
   xmlns:dc="http://purl.org/dc/elements/1.1/"
   xmlns:cc="http://creativecommons.org/ns#"
   xmlns:rdf="http://www.w3.org/1999/02/22-rdf-syntax-ns#"
   xmlns:svg="http://www.w3.org/2000/svg"
   xmlns="http://www.w3.org/2000/svg"
   viewBox="0 0 500 297.23599"
   height="297.23599"
   width="500"
   xml:space="preserve"
   id="svg2"
   version="1.1"><metadata
     id="metadata8"><rdf:RDF><cc:Work
         rdf:about=""><dc:format>image/svg+xml</dc:format><dc:type
           rdf:resource="http://purl.org/dc/dcmitype/StillImage" /></cc:Work></rdf:RDF></metadata><defs
     id="defs6"><clipPath
       id="clipPath22"
       clipPathUnits="userSpaceOnUse"><path
         id="path20"
         d="M 0,222.927 H 375 V 0 H 0 Z" /></clipPath></defs><g
     transform="matrix(1.3333333,0,0,-1.3333333,0,297.236)"
     id="g10"><path
       id="path12"
       style="fill:#004c9b;fill-opacity:1;fill-rule:nonzero;stroke:none"
       d="M 320.86,39.58 H 39.58 v 119.824 h 281.28 z" /><path
       id="path14"
       style="fill:#ffdc00;fill-opacity:1;fill-rule:nonzero;stroke:none"
       d="m 336.498,63.523 h -39.58 v 119.824 h 39.58 z" /><g
       id="g16"><g
         clip-path="url(#clipPath22)"
         id="g18"><g
           transform="translate(79.7142,125.6612)"
           id="g24"><path
             id="path26"
             style="fill:#ffffff;fill-opacity:1;fill-rule:nonzero;stroke:none"
             d="m 0,0 h -9.378 l -0.384,0.377 v 8.172 l 0.369,0.402 H 0 C 3.428,8.951 4.956,7.57 4.956,4.475 4.956,1.38 3.428,0 0,0 m 4.116,-5.038 c 3.422,0.828 7.269,3.835 7.269,9.513 0,6.227 -4.256,9.944 -11.385,9.944 h -15.798 l -0.393,-0.393 v -32.559 l 0.393,-0.392 h 5.643 l 0.393,0.392 v 12.604 l 0.409,0.461 5.219,-0.016 0.844,-0.461 9.635,-12.531 0.9,-0.449 h 2.786 l 0.393,0.392 v 4.694 l -6.308,8.238 z" /></g><g
           transform="translate(98.1673,97.2827)"
           id="g28"><path
             id="path30"
             style="fill:#ffffff;fill-opacity:1;fill-rule:nonzero;stroke:none"
             d="m 0,0 c 6.866,0 8.656,4.431 10.435,8.878 l 7.679,19.199 v 4.715 l -0.392,0.393 H 13.52 L 13.106,32.772 7.241,16.153 H 6.679 L 0.831,32.772 0.419,33.185 H -3.783 L -4.176,32.792 V 28.077 L 3.514,9.303 3.506,8.775 C 3.05,7.039 2.467,5.382 0,5.468 H -2.83 L -3.223,5.075 V 0.393 L -2.83,0 Z" /></g><g
           transform="translate(125.478,121.2228)"
           id="g32"><path
             id="path34"
             style="fill:#ffffff;fill-opacity:1;fill-rule:nonzero;stroke:none"
             d="m 0,0 c 0,1.181 0.759,4.257 4.475,4.257 3.716,0 4.476,-3.154 4.476,-4.241 L 8.587,-0.368 H 0.383 Z m 15.468,-4.875 0.392,0.393 v 1.861 C 15.86,6.492 9.727,9.725 4.475,9.725 -0.777,9.725 -6.91,6.492 -6.91,-2.621 c 0,-5.695 3.107,-12.347 11.866,-12.347 8.012,0 9.622,5.264 9.933,7.009 l -0.382,0.382 H 8.863 l -0.42,-0.42 C 7.97,-8.911 6.605,-9.5 4.956,-9.5 0.841,-9.5 0,-6.412 0,-5.272 l 0.368,0.397 z" /></g><g
           transform="translate(151.7521,128.2949)"
           id="g36"><path
             id="path38"
             style="fill:#ffffff;fill-opacity:1;fill-rule:nonzero;stroke:none"
             d="M 0,0 -0.593,1.761 -1.004,2.173 H -6.168 L -6.56,1.78 v -22.946 l 0.392,-0.393 h 5.644 l 0.393,0.393 v 11.473 c 0,4.544 1.575,6.398 5.436,6.398 H 8.608 L 9,-2.902 V 1.78 L 8.608,2.173 H 5.786 C 1.375,2.173 0.447,0.018 0.437,0 Z" /></g><g
           transform="translate(175.4865,120.8569)"
           id="g40"><path
             id="path42"
             style="fill:#ffffff;fill-opacity:1;fill-rule:nonzero;stroke:none"
             d="m 0,0 c -0.493,0.083 -0.987,0.15 -1.465,0.217 -2.376,0.327 -4.427,0.611 -4.427,2.334 0,1.726 1.344,2.072 3.514,2.072 2.383,0 3.472,-0.472 3.513,-1.528 L 1.529,2.701 h 5.644 l 0.392,0.393 c -0.036,4.317 -3.839,6.997 -9.943,6.997 -6.226,0 -9.944,-2.639 -9.944,-7.059 0,-4.009 3.031,-6.546 9.007,-7.543 0.378,-0.063 0.74,-0.117 1.083,-0.169 2.318,-0.351 3.849,-0.583 3.849,-2.381 0,-1.858 -2.28,-2.073 -3.995,-2.073 -2.055,0 -3.958,0.304 -3.994,2.491 l -0.394,0.393 h -5.643 l -0.393,-0.393 c 0.032,-4.911 4.021,-7.959 10.424,-7.959 5.039,0 10.423,1.981 10.423,7.541 C 8.045,-1.341 2.611,-0.435 0,0" /></g><g
           transform="translate(198.1221,111.723)"
           id="g44"><path
             id="path46"
             style="fill:#ffffff;fill-opacity:1;fill-rule:nonzero;stroke:none"
             d="m 0,0 c -3.455,0 -5.436,2.507 -5.436,6.879 0,4.371 1.981,6.878 5.436,6.878 3.455,0 5.436,-2.507 5.436,-6.878 C 5.436,2.507 3.455,0 0,0 m 0,19.225 c -7.209,0 -11.866,-4.846 -11.866,-12.346 0,-7.501 4.657,-12.347 11.866,-12.347 7.208,0 11.866,4.846 11.866,12.347 0,7.5 -4.658,12.346 -11.866,12.346" /></g><g
           transform="translate(229.9707,106.7358)"
           id="g48"><path
             id="path50"
             style="fill:#ffffff;fill-opacity:1;fill-rule:nonzero;stroke:none"
             d="M 0,0 H 5.644 L 6.037,0.393 V 14.75 c 0,5.836 -3.442,9.462 -8.983,9.462 -2.476,0 -4.804,-0.872 -6.351,-2.59 h -0.437 l -0.553,1.698 -0.411,0.412 h -5.163 l -0.392,-0.393 V 0.393 L -15.861,0 h 5.643 l 0.394,0.393 v 11.953 c 0,4.246 1.829,6.398 5.436,6.398 2.613,0 3.995,-1.547 3.995,-4.475 V 0.393 Z" /></g><g
           transform="translate(90.1381,96.5139)"
           id="g52"><path
             id="path54"
             style="fill:#ffffff;fill-opacity:1;fill-rule:nonzero;stroke:none"
             d="M 0,0 -0.393,0.393 H -6.037 L -6.429,0 v -20.124 c 0,-5.202 -2.314,-7.84 -6.879,-7.84 -4.564,0 -6.878,2.638 -6.878,7.84 V 0 l -0.393,0.393 h -5.643 L -26.615,0 v -20.124 c 0,-8.582 4.726,-13.308 13.307,-13.308 8.582,0 13.308,4.726 13.308,13.308 z" /></g><g
           transform="translate(122.4097,96.9067)"
           id="g56"><path
             id="path58"
             style="fill:#ffffff;fill-opacity:1;fill-rule:nonzero;stroke:none"
             d="M 0,0 -0.392,-0.393 V -5.075 L 0,-5.468 h 5.644 l 0.393,0.393 v 4.682 L 5.644,0 Z" /></g><g
           transform="translate(128.0533,63.5625)"
           id="g60"><path
             id="path62"
             style="fill:#ffffff;fill-opacity:1;fill-rule:nonzero;stroke:none"
             d="M 0,0 0.393,0.393 V 23.339 L 0,23.732 H -5.644 L -6.036,23.339 V 0.393 L -5.644,0 Z" /></g><g
           transform="translate(149.9962,87.2942)"
           id="g64"><path
             id="path66"
             style="fill:#ffffff;fill-opacity:1;fill-rule:nonzero;stroke:none"
             d="M 0,0 -0.414,-0.414 -6.317,-15.64 H -6.796 L -12.687,-0.414 -13.101,0 h -4.202 l -0.392,-0.393 v -4.712 l 8.146,-18.209 0.417,-0.418 h 5.163 l 0.417,0.418 8.146,18.209 v 4.712 L 4.201,0 Z" /></g><g
           transform="translate(213.6715,77.6836)"
           id="g68"><path
             id="path70"
             style="fill:#ffffff;fill-opacity:1;fill-rule:nonzero;stroke:none"
             d="m 0,0 c -0.494,0.082 -0.987,0.15 -1.466,0.217 -2.376,0.328 -4.427,0.611 -4.427,2.334 0,1.726 1.344,2.072 3.514,2.072 2.383,0 3.472,-0.472 3.513,-1.528 L 1.528,2.701 h 5.643 l 0.393,0.393 c -0.036,4.317 -3.839,6.997 -9.943,6.997 -6.226,0 -9.943,-2.639 -9.943,-7.059 0,-4.009 3.03,-6.547 9.007,-7.543 0.379,-0.063 0.74,-0.118 1.083,-0.169 2.317,-0.351 3.847,-0.583 3.847,-2.382 0,-1.857 -2.279,-2.072 -3.994,-2.072 -2.056,0 -3.96,0.303 -3.995,2.491 l -0.392,0.393 h -5.644 l -0.392,-0.393 c 0.033,-4.911 4.02,-7.959 10.423,-7.959 5.039,0 10.425,1.981 10.425,7.54 C 8.046,-1.341 2.611,-0.435 0,0" /></g><g
           transform="translate(231.6069,63.5625)"
           id="g72"><path
             id="path74"
             style="fill:#ffffff;fill-opacity:1;fill-rule:nonzero;stroke:none"
             d="M 0,0 0.393,0.393 V 23.339 L 0,23.732 H -5.644 L -6.036,23.339 V 0.393 L -5.644,0 Z" /></g><g
           transform="translate(225.9633,96.9067)"
           id="g76"><path
             id="path78"
             style="fill:#ffffff;fill-opacity:1;fill-rule:nonzero;stroke:none"
             d="M 0,0 -0.392,-0.393 V -5.075 L 0,-5.468 h 5.644 l 0.393,0.393 v 4.682 L 5.644,0 Z" /></g><g
           transform="translate(247.7213,63.5625)"
           id="g80"><path
             id="path82"
             style="fill:#ffffff;fill-opacity:1;fill-rule:nonzero;stroke:none"
             d="M 0,0 H 4.264 L 4.656,0.393 V 5.075 L 4.264,5.468 H 0 c -1.041,0 -1.591,0.55 -1.591,1.592 v 10.813 l 0.387,0.391 h 5.468 l 0.392,0.393 v 4.682 l -0.392,0.393 h -5.477 l -0.378,0.387 v 4.507 l -0.394,0.393 h -5.643 l -0.393,-0.393 v -4.507 l -0.397,-0.387 h -3.536 l -0.393,-0.393 v -4.682 l 0.393,-0.393 h 3.557 l 0.376,-0.385 V 7.06 C -8.021,0.688 -2.412,0 0,0" /></g><g
           transform="translate(111.1665,63.5625)"
           id="g84"><path
             id="path86"
             style="fill:#ffffff;fill-opacity:1;fill-rule:nonzero;stroke:none"
             d="M 0,0 H 5.644 L 6.037,0.393 V 14.75 c 0,5.836 -3.442,9.462 -8.983,9.462 -2.476,0 -4.804,-0.872 -6.351,-2.59 h -0.437 l -0.553,1.698 -0.411,0.412 h -5.163 l -0.393,-0.393 V 0.393 L -15.861,0 h 5.643 l 0.394,0.393 v 11.953 c 0,4.246 1.829,6.398 5.436,6.398 2.613,0 3.995,-1.547 3.995,-4.475 V 0.393 Z" /></g><g
           transform="translate(163.6634,78.0495)"
           id="g88"><path
             id="path90"
             style="fill:#ffffff;fill-opacity:1;fill-rule:nonzero;stroke:none"
             d="m 0,0 c 0,1.181 0.759,4.257 4.475,4.257 3.716,0 4.476,-3.154 4.476,-4.241 L 8.587,-0.368 H 0.383 Z m 15.468,-4.874 0.392,0.392 v 1.861 C 15.86,6.492 9.727,9.725 4.475,9.725 -0.777,9.725 -6.91,6.492 -6.91,-2.621 c 0,-5.695 3.107,-12.347 11.866,-12.347 8.012,0 9.622,5.264 9.933,7.009 l -0.382,0.382 H 8.863 l -0.42,-0.42 C 7.97,-8.911 6.605,-9.5 4.956,-9.5 0.841,-9.5 0,-6.412 0,-5.272 l 0.368,0.398 z" /></g><g
           transform="translate(189.937,85.1216)"
           id="g92"><path
             id="path94"
             style="fill:#ffffff;fill-opacity:1;fill-rule:nonzero;stroke:none"
             d="M 0,0 -0.593,1.761 -1.004,2.173 H -6.168 L -6.56,1.78 v -22.946 l 0.392,-0.393 h 5.644 l 0.393,0.393 v 11.473 c 0,4.544 1.575,6.398 5.436,6.398 h 3.303 l 0.393,0.393 V 1.78 L 8.608,2.173 H 5.786 C 1.375,2.173 0.447,0.019 0.437,0 Z" /></g><g
           transform="translate(259.4663,54.1094)"
           id="g96"><path
             id="path98"
             style="fill:#ffffff;fill-opacity:1;fill-rule:nonzero;stroke:none"
             d="m 0,0 c 6.866,0 8.656,4.431 10.435,8.878 l 7.679,19.198 v 4.716 l -0.392,0.393 H 13.52 L 13.106,32.772 7.241,16.153 H 6.679 L 0.831,32.772 0.419,33.185 H -3.783 L -4.176,32.792 V 28.077 L 3.514,9.303 3.506,8.775 C 2.958,7.014 2.239,5.468 0,5.468 H -2.342 L -2.734,5.075 V 0.393 L -2.342,0 Z" /></g></g></g></g></svg>